<svg width="122" height="123" viewBox="0 0 122 123" fill="none" xmlns="http://www.w3.org/2000/svg">
<path d="M35.2137 85.0769V116.547L39.9071 118.283C43.0541 119.45 46.2825 120.318 49.538 120.942V102.141H49.5651V85.1041L35.2137 85.0769Z" fill="white"/>
<path d="M61.0136 0C27.3734 0 0 27.3734 0 61.0136C0 66.1681 0.651161 71.3227 1.92623 76.2873L3.30968 81.659H35.1865H49.5108H58.599C66.5208 81.659 72.9233 75.2564 72.9233 67.3346H49.5108H35.1865H14.7311C14.4599 65.2457 14.2971 63.1297 14.2971 61.0136C14.2971 35.268 35.2408 14.3242 60.9864 14.3242H107.676V61.0136C107.676 86.7592 86.732 107.703 60.9864 107.703V122.027C94.6266 122.027 122 94.6538 122 61.0136V0H61.0136Z" fill="white"/>
<path d="M84.0469 31.1172H49.5115C41.5898 31.1172 35.1872 37.5197 35.1872 45.4414V64.6217H49.5115V50.4874C49.5115 47.6931 51.7632 45.4414 54.5575 45.4414H69.7228C77.6445 45.4414 84.0469 39.0118 84.0469 31.1172Z" fill="white"/>
</svg>
